<?xml version="1.0" standalone="no"?>
<!DOCTYPE svg PUBLIC "-//W3C//DTD SVG 20010904//EN"
 "http://www.w3.org/TR/2001/REC-SVG-20010904/DTD/svg10.dtd">
<svg version="1.0" xmlns="http://www.w3.org/2000/svg"
 width="2702.000000pt" height="2702.000000pt" viewBox="0 0 2702.000000 2702.000000"
 preserveAspectRatio="xMidYMid meet">
<metadata>
Created by potrace 1.14, written by Peter Selinger 2001-2017
</metadata>
<g transform="translate(0.000000,2702.000000) scale(0.100000,-0.100000)"
fill="#000000" stroke="none">
<path d="M13157 23783 c-1 0 -108 -4 -237 -8 -129 -4 -260 -8 -290 -10 -152
-8 -291 -16 -345 -20 -33 -2 -98 -7 -145 -10 -47 -3 -110 -8 -140 -10 -30 -3
-84 -7 -120 -10 -36 -3 -81 -7 -100 -10 -19 -2 -69 -7 -110 -11 -41 -3 -82 -7
-90 -9 -8 -2 -49 -6 -90 -10 -41 -4 -82 -8 -90 -10 -8 -2 -46 -6 -85 -10 -38
-4 -78 -9 -87 -11 -9 -1 -48 -6 -85 -9 -37 -4 -77 -9 -88 -11 -11 -2 -31 -6
-45 -8 -14 -3 -47 -8 -75 -11 -64 -8 -115 -15 -205 -30 -14 -2 -56 -9 -95 -15
-38 -6 -81 -13 -95 -15 -14 -2 -54 -9 -90 -14 -36 -6 -75 -13 -86 -15 -12 -2
-37 -7 -55 -10 -19 -3 -44 -8 -55 -10 -12 -2 -39 -7 -60 -10 -57 -9 -510 -103
-639 -132 -60 -13 -121 -27 -135 -30 -14 -3 -41 -9 -60 -14 -19 -5 -47 -12
-62 -15 -68 -13 -82 -16 -90 -21 -5 -3 -21 -7 -36 -10 -40 -7 -312 -79 -512
-136 -96 -27 -179 -51 -185 -52 -77 -18 -601 -188 -835 -271 -253 -89 -632
-234 -645 -246 -5 -5 -15 -9 -21 -9 -10 0 -192 -74 -309 -125 -16 -7 -70 -31
-120 -53 -49 -22 -124 -55 -165 -74 -41 -19 -102 -47 -135 -63 -190 -87 -636
-313 -815 -412 -36 -20 -81 -45 -100 -56 -19 -10 -79 -44 -133 -76 -54 -31
-106 -60 -115 -66 -32 -18 -283 -170 -307 -185 -13 -8 -45 -28 -72 -44 -202
-122 -659 -439 -923 -640 -222 -169 -585 -466 -686 -561 -6 -5 -46 -41 -89
-80 -307 -274 -737 -717 -986 -1015 -34 -41 -65 -77 -68 -80 -9 -7 -174 -217
-252 -320 -35 -47 -66 -87 -69 -90 -3 -3 -49 -66 -102 -140 -173 -244 -389
-582 -516 -810 -14 -25 -42 -76 -64 -114 -58 -103 -305 -610 -313 -641 -2 -11
-27 -69 -51 -121 -55 -121 -228 -606 -274 -769 -41 -142 -54 -190 -76 -275
-34 -133 -101 -432 -114 -510 -5 -36 -12 -76 -15 -90 -3 -14 -8 -45 -11 -70
-3 -25 -7 -52 -9 -60 -5 -18 -10 -54 -25 -170 -17 -137 -19 -151 -26 -224 -25
-261 -29 -375 -29 -741 1 -363 4 -455 30 -715 10 -103 24 -219 29 -245 2 -11
7 -47 11 -80 9 -70 8 -67 34 -215 93 -528 253 -1076 466 -1594 127 -310 305
-673 458 -936 27 -47 56 -96 64 -110 156 -273 419 -661 662 -975 77 -99 326
-402 340 -415 4 -3 40 -43 81 -90 41 -47 102 -114 135 -150 104 -113 516 -522
624 -620 58 -52 112 -102 121 -110 9 -8 47 -42 85 -74 39 -33 75 -64 80 -70 6
-6 31 -28 57 -49 26 -21 53 -44 60 -50 37 -36 459 -368 559 -439 50 -36 174
-128 184 -136 6 -4 66 -46 135 -92 69 -47 127 -87 130 -90 33 -35 668 -429
897 -556 24 -13 64 -36 90 -50 133 -74 167 -93 278 -151 131 -70 533 -269 660
-328 131 -60 507 -226 545 -240 19 -7 53 -21 75 -31 22 -10 45 -19 50 -20 11
-3 278 -109 310 -123 11 -5 65 -26 120 -46 55 -20 123 -45 150 -55 383 -140
910 -306 1340 -420 168 -45 426 -110 457 -115 17 -3 34 -8 38 -10 4 -2 20 -7
36 -10 73 -13 88 -16 94 -20 4 -2 22 -7 41 -10 19 -3 75 -15 124 -26 104 -24
121 -27 155 -34 43 -8 74 -14 100 -20 30 -6 66 -14 100 -20 14 -2 70 -13 125
-24 101 -20 260 -48 465 -80 36 -6 76 -13 89 -16 12 -2 42 -7 65 -9 22 -3 52
-8 66 -10 29 -5 114 -17 147 -21 13 -2 40 -6 60 -9 21 -3 58 -8 83 -11 25 -3
77 -10 115 -15 39 -5 99 -12 135 -16 36 -3 72 -7 80 -9 9 -2 47 -6 85 -9 39
-4 86 -8 105 -11 47 -6 118 -13 215 -20 44 -3 96 -8 115 -11 19 -2 69 -6 110
-9 41 -3 104 -7 140 -10 436 -32 707 -40 1320 -40 473 0 740 6 975 20 33 2
107 7 165 10 58 4 123 8 145 10 22 2 81 7 130 10 50 3 108 8 130 10 64 7 146
15 210 20 33 3 78 7 100 10 22 2 67 7 100 10 33 3 76 8 95 10 19 3 77 9 128
15 92 10 137 16 197 25 17 2 53 7 80 10 28 4 91 12 140 20 50 8 110 17 135 20
51 7 86 12 133 21 17 3 46 7 62 10 17 2 41 6 55 9 14 2 41 7 60 10 19 3 87 15
150 26 63 12 126 23 140 25 138 24 530 107 755 159 61 14 121 28 135 31 14 3
77 19 140 35 63 17 122 32 130 34 8 2 67 18 130 35 63 17 123 32 132 35 268
63 1326 412 1533 505 11 5 90 37 175 71 485 191 1184 519 1570 736 30 17 80
44 111 61 448 242 1117 676 1549 1006 105 80 385 301 406 321 6 5 33 28 60 50
60 50 202 172 219 188 6 7 40 37 75 67 224 196 621 593 840 840 36 40 72 80
81 89 67 68 378 457 512 641 42 58 81 110 87 117 15 19 230 340 286 428 44 70
72 116 168 278 35 60 146 261 171 312 11 22 23 41 28 43 4 2 7 7 7 11 0 5 40
92 90 194 50 103 90 189 90 191 0 2 17 42 38 88 22 45 50 110 62 143 13 33 28
64 32 69 4 6 8 16 8 24 0 8 7 28 15 45 68 148 230 648 290 895 20 80 75 315
79 334 41 208 68 360 81 458 3 25 8 56 10 70 2 14 7 52 10 85 4 33 8 67 10 75
2 8 7 55 11 105 3 49 8 101 10 115 25 199 25 970 -1 1210 -2 19 -6 67 -9 105
-3 39 -10 104 -15 145 -6 41 -13 95 -16 120 -3 25 -8 59 -10 75 -3 17 -7 48
-10 70 -11 74 -36 209 -61 335 -27 130 -28 137 -44 210 -6 25 -13 56 -16 70
-3 14 -9 39 -14 55 -6 17 -23 82 -40 145 -42 159 -75 269 -137 450 -30 85 -55
162 -58 170 -6 24 -118 304 -168 420 -131 306 -319 676 -482 948 -108 181
-150 247 -267 422 -96 144 -117 174 -212 306 -57 78 -272 358 -309 401 -13 15
-62 73 -107 128 -73 88 -132 155 -270 309 -177 197 -550 566 -770 762 -125
111 -197 173 -230 200 -19 16 -37 31 -40 34 -3 3 -43 37 -90 75 -47 38 -90 74
-97 80 -30 25 -44 36 -138 109 -55 42 -107 83 -116 90 -14 12 -143 107 -264
196 -177 130 -516 358 -715 482 -167 104 -390 238 -395 238 -3 0 -33 17 -67
38 -75 46 -146 85 -288 160 -58 31 -106 59 -108 64 -2 4 -9 8 -16 8 -7 0 -50
20 -96 45 -93 50 -391 198 -545 270 -680 319 -1485 622 -2230 841 -99 29 -401
113 -425 119 -8 2 -67 17 -130 33 -63 17 -126 33 -140 36 -14 3 -54 12 -90 21
-36 9 -72 18 -80 20 -8 2 -87 20 -175 40 -155 36 -546 117 -620 129 -29 5
-195 35 -225 41 -14 2 -36 7 -50 10 -14 2 -43 7 -65 10 -23 3 -52 8 -65 10
-14 3 -57 10 -97 16 -39 5 -82 12 -95 15 -13 2 -41 7 -63 9 -22 3 -49 6 -60 9
-11 2 -45 7 -75 11 -30 4 -62 9 -71 10 -9 2 -40 6 -70 10 -30 3 -65 8 -79 10
-14 2 -50 7 -80 10 -30 3 -66 8 -80 10 -14 2 -47 7 -75 10 -27 3 -68 7 -90 9
-22 3 -69 7 -105 11 -36 3 -81 8 -100 10 -19 2 -62 6 -95 9 -33 3 -87 8 -120
11 -33 3 -91 7 -130 10 -38 3 -97 8 -130 10 -107 10 -178 14 -300 20 -66 3
-147 8 -180 10 -182 12 -1218 28 -1228 18z"/>
</g>
</svg>
